<mxfile host="65bd71144e">
    <diagram id="n0IL5XU4Jyfo98noXuC0" name="main">
        <mxGraphModel dx="1102" dy="549" grid="1" gridSize="10" guides="1" tooltips="1" connect="1" arrows="1" fold="1" page="1" pageScale="1" pageWidth="827" pageHeight="1169" math="0" shadow="0">
            <root>
                <mxCell id="0"/>
                <mxCell id="1" parent="0"/>
                <mxCell id="2" value="" style="whiteSpace=wrap;html=1;" parent="1" vertex="1">
                    <mxGeometry x="30" y="60" width="720" height="360" as="geometry"/>
                </mxCell>
                <mxCell id="3" value="Поле ввода текст для печати, только смотреть можно но не вписывать&lt;br&gt;Или отображения текущего рекорда" style="whiteSpace=wrap;html=1;fillColor=#008a00;fontColor=#ffffff;strokeColor=#005700;" parent="1" vertex="1">
                    <mxGeometry x="65" y="120" width="650" height="100" as="geometry"/>
                </mxCell>
                <mxCell id="4" value="Время печати, таймер" style="whiteSpace=wrap;html=1;fillColor=#60a917;fontColor=#ffffff;strokeColor=#2D7600;" parent="1" vertex="1">
                    <mxGeometry x="575" y="90" width="140" height="20" as="geometry"/>
                </mxCell>
                <mxCell id="5" value="Заголовк занятия" style="whiteSpace=wrap;html=1;fillColor=#60a917;fontColor=#ffffff;strokeColor=#2D7600;" parent="1" vertex="1">
                    <mxGeometry x="65" y="90" width="285" height="20" as="geometry"/>
                </mxCell>
                <mxCell id="6" value="Клавиатура, активная, моделька настоящей клавиатуры" style="whiteSpace=wrap;html=1;fillColor=#6a00ff;fontColor=#ffffff;strokeColor=#3700CC;" parent="1" vertex="1">
                    <mxGeometry x="65" y="250" width="645" height="150" as="geometry"/>
                </mxCell>
                <mxCell id="7" value="Меню приложения" style="whiteSpace=wrap;html=1;" parent="1" vertex="1">
                    <mxGeometry x="30" y="30" width="720" height="20" as="geometry"/>
                </mxCell>
                <mxCell id="8" value="прогрес бар" style="whiteSpace=wrap;html=1;fillColor=#1ba1e2;fontColor=#ffffff;strokeColor=#006EAF;" vertex="1" parent="1">
                    <mxGeometry x="65" y="225" width="645" height="20" as="geometry"/>
                </mxCell>
            </root>
        </mxGraphModel>
    </diagram>
</mxfile>